<svg width="16" height="12" viewBox="0 0 16 12" fill="none" xmlns="http://www.w3.org/2000/svg">
<path fill-rule="evenodd" clip-rule="evenodd" d="M7.63661 2.93724C9.8525 2.93734 11.9837 3.78877 13.5896 5.31557C13.7105 5.43345 13.9038 5.43196 14.0229 5.31224L15.1789 4.14557C15.2392 4.08485 15.2729 4.0026 15.2724 3.91702C15.2719 3.83144 15.2373 3.74959 15.1763 3.68957C10.9612 -0.349975 4.31137 -0.349975 0.0962725 3.68957C0.0352139 3.74954 0.00057 3.83137 6.97078e-06 3.91695C-0.000556058 4.00253 0.0330082 4.08481 0.0932725 4.14557L1.24961 5.31224C1.36863 5.43214 1.56208 5.43363 1.68294 5.31557C3.28909 3.78867 5.4205 2.93723 7.63661 2.93724ZM7.63661 6.73291C8.8541 6.73283 10.0281 7.18536 10.9306 8.00257C11.0527 8.11855 11.2449 8.11604 11.3639 7.99691L12.5186 6.83024C12.5794 6.76904 12.6132 6.68603 12.6123 6.59976C12.6114 6.5135 12.576 6.43119 12.5139 6.37124C9.76574 3.81486 5.5098 3.81486 2.76161 6.37124C2.69953 6.43118 2.66411 6.51354 2.6633 6.59983C2.66248 6.68612 2.69634 6.76913 2.75727 6.83024L3.91161 7.99691C4.03059 8.11604 4.22288 8.11855 4.34494 8.00257C5.24681 7.1859 6.41992 6.73341 7.63661 6.73291ZM9.9496 9.28672C9.95137 9.37323 9.91736 9.45663 9.85561 9.51724L7.85827 11.5329C7.79972 11.5921 7.7199 11.6255 7.63661 11.6255C7.55332 11.6255 7.47349 11.5921 7.41494 11.5329L5.41727 9.51724C5.35556 9.45659 5.32161 9.37316 5.32344 9.28665C5.32527 9.20015 5.36272 9.11823 5.42694 9.06024C6.70251 7.98136 8.5707 7.98136 9.84627 9.06024C9.91045 9.11827 9.94783 9.20022 9.9496 9.28672Z" fill="black"/>
</svg>
