<svg width="18" height="11" viewBox="0 0 18 11" fill="none" xmlns="http://www.w3.org/2000/svg">
<path fill-rule="evenodd" clip-rule="evenodd" d="M16.6602 0H15.6602C15.1079 0 14.6602 0.447715 14.6602 1V9.66667C14.6602 10.219 15.1079 10.6667 15.6602 10.6667H16.6602C17.2124 10.6667 17.6602 10.219 17.6602 9.66667V1C17.6602 0.447715 17.2124 0 16.6602 0ZM10.9935 2.33333H11.9935C12.5458 2.33333 12.9935 2.78105 12.9935 3.33333V9.66667C12.9935 10.219 12.5458 10.6667 11.9935 10.6667H10.9935C10.4412 10.6667 9.99349 10.219 9.99349 9.66667V3.33333C9.99349 2.78105 10.4412 2.33333 10.9935 2.33333ZM7.32682 4.66667H6.32682C5.77454 4.66667 5.32682 5.11438 5.32682 5.66667V9.66667C5.32682 10.219 5.77454 10.6667 6.32682 10.6667H7.32682C7.87911 10.6667 8.32682 10.219 8.32682 9.66667V5.66667C8.32682 5.11438 7.87911 4.66667 7.32682 4.66667ZM2.66016 6.66667H1.66016C1.10787 6.66667 0.660156 7.11438 0.660156 7.66667V9.66667C0.660156 10.219 1.10787 10.6667 1.66016 10.6667H2.66016C3.21244 10.6667 3.66016 10.219 3.66016 9.66667V7.66667C3.66016 7.11438 3.21244 6.66667 2.66016 6.66667Z" fill="black"/>
</svg>
