<svg width="20" height="20" viewBox="0 0 20 20" fill="none" xmlns="http://www.w3.org/2000/svg">
<g clip-path="url(#clip0_1265_18789)">
<path d="M9.99984 18.3334C12.301 18.3334 14.3843 17.4006 15.8924 15.8926C17.4004 14.3845 18.3332 12.3012 18.3332 10C18.3332 7.69885 17.4004 5.61552 15.8924 4.10746C14.3843 2.59943 12.301 1.66669 9.99984 1.66669C7.69867 1.66669 5.61534 2.59943 4.10728 4.10746C2.59925 5.61552 1.6665 7.69885 1.6665 10C1.6665 12.3012 2.59925 14.3845 4.10728 15.8926C5.61534 17.4006 7.69867 18.3334 9.99984 18.3334Z" fill="#D82C0D" stroke="#D82C0D" stroke-width="2" stroke-linejoin="bevel"/>
<path fill-rule="evenodd" clip-rule="evenodd" d="M10.0002 15.4166C10.5755 15.4166 11.0418 14.9503 11.0418 14.375C11.0418 13.7997 10.5755 13.3333 10.0002 13.3333C9.42487 13.3333 8.9585 13.7997 8.9585 14.375C8.9585 14.9503 9.42487 15.4166 10.0002 15.4166Z" fill="white"/>
<path d="M10 5V11.6667" stroke="white" stroke-width="2" stroke-linejoin="bevel"/>
</g>
<defs>
<clipPath id="clip0_1265_18789">
<rect width="20" height="20" fill="white"/>
</clipPath>
</defs>
</svg>
