<svg width="24" height="24" viewBox="0 0 24 24" fill="none" xmlns="http://www.w3.org/2000/svg">
<path d="M16.8179 3.87109H3.03629C2.53597 3.87109 2.12904 4.27803 2.12904 4.77835V23.0929C2.12904 23.5932 2.53597 24.0001 3.03629 24.0001H16.8179C17.3177 24.0001 17.7247 23.5932 17.7247 23.0929V4.77835C17.7247 4.27803 17.3177 3.87109 16.8179 3.87109ZM13.7419 16.6453H6.3871C5.95936 16.6453 5.61291 16.2988 5.61291 15.8711C5.61291 15.4433 5.95936 15.0969 6.3871 15.0969H13.7419C14.1697 15.0969 14.5161 15.4433 14.5161 15.8711C14.5161 16.2988 14.1697 16.6453 13.7419 16.6453ZM13.7419 13.5485H6.3871C5.95936 13.5485 5.61291 13.2021 5.61291 12.7743C5.61291 12.3466 5.95936 12.0001 6.3871 12.0001H13.7419C14.1697 12.0001 14.5161 12.3466 14.5161 12.7743C14.5161 13.2021 14.1697 13.5485 13.7419 13.5485ZM13.7419 10.4517H6.3871C5.95936 10.4517 5.61291 10.1053 5.61291 9.67754C5.61291 9.2498 5.95936 8.90335 6.3871 8.90335H13.7419C14.1697 8.90335 14.5161 9.2498 14.5161 9.67754C14.5161 10.1053 14.1697 10.4517 13.7419 10.4517Z" fill="#0D0D0D"/>
<path d="M21.871 2.32258V19.3548C21.871 20.5239 20.9303 21.6774 19.2731 21.6774V4.77823C19.2731 3.42387 18.1718 2.32258 16.8179 2.32258H4.72694C4.72694 1.04177 5.83065 0 7.18694 0H19.411C20.7673 0 21.871 1.04177 21.871 2.32258Z" fill="#0D0D0D"/>
</svg>
