<svg width="20" height="20" viewBox="0 0 20 20" fill="none" xmlns="http://www.w3.org/2000/svg">
<g clip-path="url(#clip0_1271_18757)">
<path d="M9.99984 18.3334C12.301 18.3334 14.3843 17.4006 15.8924 15.8926C17.4004 14.3845 18.3332 12.3012 18.3332 10C18.3332 7.69885 17.4004 5.61552 15.8924 4.10746C14.3843 2.59943 12.301 1.66669 9.99984 1.66669C7.69867 1.66669 5.61534 2.59943 4.10728 4.10746C2.59925 5.61552 1.6665 7.69885 1.6665 10C1.6665 12.3012 2.59925 14.3845 4.10728 15.8926C5.61534 17.4006 7.69867 18.3334 9.99984 18.3334Z" fill="#A0A0A0" stroke="#A0A0A0" stroke-width="2" stroke-linejoin="round"/>
<path d="M6.6665 10L9.1665 12.5L14.1665 7.5" stroke="white" stroke-width="2" stroke-linejoin="round"/>
</g>
<defs>
<clipPath id="clip0_1271_18757">
<rect width="20" height="20" fill="white"/>
</clipPath>
</defs>
</svg>
