<svg width="16" height="12" viewBox="0 0 16 12" fill="none" xmlns="http://www.w3.org/2000/svg">
<path fill-rule="evenodd" clip-rule="evenodd" d="M7.63661 2.93733C9.8525 2.93743 11.9837 3.78887 13.5896 5.31566C13.7105 5.43354 13.9038 5.43205 14.0229 5.31233L15.1789 4.14566C15.2392 4.08494 15.2729 4.00269 15.2724 3.91711C15.2719 3.83153 15.2373 3.74968 15.1763 3.68966C10.9612 -0.349883 4.31137 -0.349883 0.0962725 3.68966C0.0352139 3.74963 0.00057 3.83146 6.97078e-06 3.91704C-0.000556058 4.00262 0.0330082 4.0849 0.0932725 4.14566L1.24961 5.31233C1.36863 5.43223 1.56208 5.43372 1.68294 5.31566C3.28909 3.78877 5.4205 2.93733 7.63661 2.93733ZM7.63661 6.733C8.8541 6.73292 10.0281 7.18546 10.9306 8.00266C11.0527 8.11864 11.245 8.11613 11.3639 7.997L12.5186 6.83033C12.5794 6.76914 12.6132 6.68612 12.6123 6.59985C12.6114 6.51359 12.576 6.43128 12.5139 6.37133C9.76574 3.81495 5.5098 3.81495 2.76161 6.37133C2.69953 6.43128 2.66411 6.51363 2.6633 6.59992C2.66248 6.68622 2.69634 6.76922 2.75727 6.83033L3.91161 7.997C4.03059 8.11613 4.22288 8.11864 4.34494 8.00266C5.24681 7.186 6.41992 6.7335 7.63661 6.733ZM9.9496 9.28682C9.95137 9.37332 9.91736 9.45673 9.85561 9.51733L7.85827 11.533C7.79972 11.5922 7.7199 11.6256 7.63661 11.6256C7.55332 11.6256 7.47349 11.5922 7.41494 11.533L5.41727 9.51733C5.35556 9.45668 5.32161 9.37325 5.32344 9.28674C5.32527 9.20024 5.36272 9.11832 5.42694 9.06033C6.70251 7.98145 8.5707 7.98145 9.84627 9.06033C9.91045 9.11837 9.94783 9.20031 9.9496 9.28682Z" fill="black"/>
</svg>
