<svg width="20" height="20" viewBox="0 0 20 20" fill="none" xmlns="http://www.w3.org/2000/svg">
<g clip-path="url(#clip0_129_2953)">
<path d="M10.0001 18.3334C12.3012 18.3334 14.3846 17.4007 15.8926 15.8926C17.4007 14.3846 18.3334 12.3012 18.3334 10.0001C18.3334 7.69892 17.4007 5.61558 15.8926 4.10752C14.3846 2.59949 12.3012 1.66675 10.0001 1.66675C7.69892 1.66675 5.61558 2.59949 4.10752 4.10752C2.59949 5.61558 1.66675 7.69892 1.66675 10.0001C1.66675 12.3012 2.59949 14.3846 4.10752 15.8926C5.61558 17.4007 7.69892 18.3334 10.0001 18.3334Z" fill="#A0A0A0" stroke="#A0A0A0" stroke-width="2" stroke-linejoin="round"/>
<path d="M6.66675 10L9.16675 12.5L14.1667 7.5" stroke="white" stroke-width="2" stroke-linejoin="round"/>
</g>
<defs>
<clipPath id="clip0_129_2953">
<rect width="20" height="20" fill="white"/>
</clipPath>
</defs>
</svg>
