<svg width="115" height="22" viewBox="0 0 115 22" fill="none" xmlns="http://www.w3.org/2000/svg">
<path d="M2.90152 4.06444L1.25152 3.75644V2.21644H8.75352V3.75644L6.66352 4.06444V16.8464L10.7995 16.6264L12.2295 12.2704L14.2975 12.5344L13.6595 18.5624H1.20752V17.1104L2.90152 16.8904V4.06444Z" fill="#0F0F0F"/>
<path d="M25.3773 18.7824C24.8493 18.7824 24.4679 18.6724 24.2333 18.4524C23.9986 18.2178 23.8813 17.8804 23.8813 17.4404V16.9564C23.5293 17.4404 23.0013 17.8731 22.2973 18.2544C21.5933 18.6211 20.8819 18.8044 20.1633 18.8044C18.7259 18.8044 17.6993 18.4524 17.0833 17.7484C16.4819 17.0298 16.1813 15.8344 16.1813 14.1624V8.04644L15.1473 7.76044V6.35244L19.2833 6.06644H19.3053L19.7893 6.37444V14.2504C19.7893 15.2038 19.9066 15.8711 20.1413 16.2524C20.3759 16.6191 20.7939 16.8024 21.3953 16.8024C22.2166 16.8024 22.9059 16.5238 23.4633 15.9664V8.04644L22.0993 7.71644V6.35244L26.4553 6.06644H26.5213L27.0493 6.37444V17.0444H28.2153V18.4524C27.7166 18.5551 27.2546 18.6358 26.8293 18.6944C26.4186 18.7531 25.9346 18.7824 25.3773 18.7824Z" fill="#0F0F0F"/>
<path d="M31.0655 8.17844H29.3495V6.81444L31.0655 6.37444V5.45044C31.0655 4.46777 31.3295 3.5731 31.8575 2.76644C32.3855 1.95977 33.0895 1.32177 33.9695 0.852436C34.8641 0.383104 35.8248 0.148438 36.8515 0.148438C37.3941 0.148438 37.8855 0.221771 38.3255 0.368437V3.55844C38.1641 3.38244 37.8488 3.21377 37.3795 3.05244C36.9101 2.87644 36.4481 2.78844 35.9935 2.78844C35.5095 2.78844 35.1648 2.9131 34.9595 3.16244C34.7541 3.41177 34.6515 3.82244 34.6515 4.39444V6.35244H37.2915V8.17844H34.6515V16.9124L36.8735 17.1104V18.5624H29.3715V17.1104L31.0655 16.9124V8.17844Z" fill="#0F0F0F"/>
<path d="M51.3361 18.8044C48.7987 18.8044 46.8701 18.0711 45.5501 16.6044C44.2301 15.1231 43.5701 13.0991 43.5701 10.5324C43.5701 8.80177 43.9221 7.29844 44.6261 6.02244C45.3301 4.73177 46.2981 3.7491 47.5301 3.07444C48.7621 2.3851 50.1554 2.04044 51.7101 2.04044C52.3261 2.04044 52.9201 2.0771 53.4921 2.15044C54.0641 2.2091 54.7534 2.2971 55.5601 2.41444C56.1907 2.5171 56.6234 2.57577 56.8581 2.59044L56.5941 7.49644H54.2401L53.4921 4.13044C53.1694 3.77844 52.4947 3.60244 51.4681 3.60244C50.3387 3.60244 49.4441 4.1671 48.7841 5.29644C48.1387 6.4111 47.8161 8.05377 47.8161 10.2244C47.8161 12.3364 48.1314 14.0304 48.7621 15.3064C49.4074 16.5824 50.3387 17.2204 51.5561 17.2204C52.1574 17.2204 52.6121 17.1618 52.9201 17.0444C53.2427 16.9271 53.5141 16.7584 53.7341 16.5384L54.7241 14.1844L56.8801 14.3824L56.4841 17.9684C56.0587 17.9978 55.5381 18.1078 54.9221 18.2984C54.3354 18.4598 53.7781 18.5844 53.2501 18.6724C52.7367 18.7604 52.0987 18.8044 51.3361 18.8044Z" fill="#0F0F0F"/>
<path d="M58.1805 15.0424C58.1805 13.7518 58.8331 12.7618 60.1385 12.0724C61.4585 11.3831 63.1891 11.0311 65.3305 11.0164V10.5764C65.3305 10.0484 65.2718 9.63044 65.1545 9.32244C65.0371 9.01444 64.8245 8.7871 64.5165 8.64044C64.2085 8.4791 63.7538 8.39844 63.1525 8.39844C62.4338 8.39844 61.7885 8.48644 61.2165 8.66244C60.6591 8.82377 60.0725 9.04377 59.4565 9.32244L58.7085 7.73844C58.9431 7.54777 59.3245 7.32044 59.8525 7.05644C60.3805 6.77777 61.0111 6.5431 61.7445 6.35244C62.4925 6.1471 63.2698 6.04444 64.0765 6.04444C65.2498 6.04444 66.1665 6.19844 66.8265 6.50644C67.5011 6.81444 67.9778 7.2911 68.2565 7.93644C68.5498 8.58177 68.6965 9.46177 68.6965 10.5764V17.1104H69.8405V18.4964C69.5031 18.5698 69.0338 18.6431 68.4325 18.7164C67.8311 18.7898 67.3178 18.8264 66.8925 18.8264C66.3351 18.8264 65.9611 18.7458 65.7705 18.5844C65.5945 18.4231 65.5065 18.1004 65.5065 17.6164V17.1104C65.1398 17.5504 64.6485 17.9464 64.0325 18.2984C63.4165 18.6358 62.7051 18.8044 61.8985 18.8044C61.2091 18.8044 60.5785 18.6578 60.0065 18.3644C59.4491 18.0564 59.0018 17.6238 58.6645 17.0664C58.3418 16.4944 58.1805 15.8198 58.1805 15.0424ZM63.6145 16.7804C63.8785 16.7804 64.1718 16.7071 64.4945 16.5604C64.8171 16.3991 65.0958 16.2084 65.3305 15.9884V12.4904C64.1865 12.4904 63.3358 12.6958 62.7785 13.1064C62.2358 13.5171 61.9645 14.0451 61.9645 14.6904C61.9645 15.3504 62.1111 15.8638 62.4045 16.2304C62.6978 16.5971 63.1011 16.7804 63.6145 16.7804Z" fill="#0F0F0F"/>
<path d="M71.0574 17.1104L72.3994 16.9124V8.64044L71.1014 8.24444V6.52844L74.7533 6.04444H74.8194L75.4354 6.50644V7.03444L75.3694 8.86044H75.4354C75.538 8.5231 75.7727 8.13444 76.1394 7.69444C76.506 7.23977 76.968 6.8511 77.5254 6.52844C78.0974 6.1911 78.7134 6.02244 79.3734 6.02244C79.7547 6.02244 80.048 6.07377 80.2533 6.17644V10.0044C80.0187 9.82844 79.762 9.6891 79.4834 9.58644C79.2194 9.48377 78.8747 9.43244 78.4493 9.43244C77.9213 9.43244 77.4447 9.50577 77.0194 9.65244C76.594 9.78444 76.2567 9.93844 76.0074 10.1144V16.9124L78.4274 17.1324V18.5624H71.0574V17.1104Z" fill="#0F0F0F"/>
<path d="M81.6277 17.1104L82.9697 16.9124V8.64044L81.6717 8.24444V6.52844L85.3237 6.04444H85.3897L86.0057 6.50644V7.03444L85.9397 8.86044H86.0057C86.1083 8.5231 86.343 8.13444 86.7097 7.69444C87.0763 7.23977 87.5383 6.8511 88.0957 6.52844C88.6677 6.1911 89.2837 6.02244 89.9437 6.02244C90.325 6.02244 90.6183 6.07377 90.8237 6.17644V10.0044C90.589 9.82844 90.3323 9.6891 90.0537 9.58644C89.7897 9.48377 89.445 9.43244 89.0197 9.43244C88.4917 9.43244 88.015 9.50577 87.5897 9.65244C87.1643 9.78444 86.827 9.93844 86.5777 10.1144V16.9124L88.9977 17.1324V18.5624H81.6277V17.1104Z" fill="#0F0F0F"/>
<path d="M97.852 18.8044C95.8427 18.8044 94.354 18.2398 93.386 17.1104C92.418 15.9664 91.934 14.4118 91.934 12.4464C91.934 11.1118 92.1833 9.96044 92.682 8.99244C93.1806 8.02444 93.8773 7.2911 94.772 6.79244C95.6813 6.2791 96.7446 6.02244 97.962 6.02244C99.502 6.02244 100.675 6.4111 101.482 7.18844C102.303 7.96577 102.729 9.06577 102.758 10.4884C102.758 11.4271 102.692 12.1824 102.56 12.7544H95.674C95.7473 14.0011 96.048 14.9544 96.576 15.6144C97.1187 16.2598 97.874 16.5824 98.842 16.5824C99.3847 16.5824 99.9493 16.4944 100.536 16.3184C101.137 16.1278 101.621 15.9151 101.988 15.6804L102.604 17.0224C102.223 17.4478 101.57 17.8511 100.646 18.2324C99.7366 18.6138 98.8053 18.8044 97.852 18.8044ZM99.26 11.3024L99.282 10.3784C99.282 9.45444 99.1573 8.75044 98.908 8.26644C98.6587 7.78244 98.2333 7.54044 97.632 7.54044C97.016 7.54044 96.5393 7.81177 96.202 8.35444C95.8646 8.88244 95.6813 9.8651 95.652 11.3024H99.26Z" fill="#0F0F0F"/>
<path d="M104.38 17.1104L105.722 16.9124V8.64044L104.424 8.24444V6.52844L108.076 6.04444H108.142L108.758 6.50644V7.03444L108.692 8.86044H108.758C108.86 8.5231 109.095 8.13444 109.462 7.69444C109.828 7.23977 110.29 6.8511 110.848 6.52844C111.42 6.1911 112.036 6.02244 112.696 6.02244C113.077 6.02244 113.37 6.07377 113.576 6.17644V10.0044C113.341 9.82844 113.084 9.6891 112.806 9.58644C112.542 9.48377 112.197 9.43244 111.772 9.43244C111.244 9.43244 110.767 9.50577 110.342 9.65244C109.916 9.78444 109.579 9.93844 109.33 10.1144V16.9124L111.75 17.1324V18.5624H104.38V17.1104Z" fill="#0F0F0F"/>
</svg>
