<svg width="18" height="11" viewBox="0 0 18 11" fill="none" xmlns="http://www.w3.org/2000/svg">
<path fill-rule="evenodd" clip-rule="evenodd" d="M16.66 0H15.66C15.1077 0 14.66 0.447715 14.66 1V9.66667C14.66 10.219 15.1077 10.6667 15.66 10.6667H16.66C17.2123 10.6667 17.66 10.219 17.66 9.66667V1C17.66 0.447715 17.2123 0 16.66 0ZM10.9934 2.33333H11.9934C12.5457 2.33333 12.9934 2.78105 12.9934 3.33333V9.66667C12.9934 10.219 12.5457 10.6667 11.9934 10.6667H10.9934C10.4411 10.6667 9.99337 10.219 9.99337 9.66667V3.33333C9.99337 2.78105 10.4411 2.33333 10.9934 2.33333ZM7.3267 4.66667H6.3267C5.77442 4.66667 5.3267 5.11438 5.3267 5.66667V9.66667C5.3267 10.219 5.77442 10.6667 6.3267 10.6667H7.3267C7.87899 10.6667 8.3267 10.219 8.3267 9.66667V5.66667C8.3267 5.11438 7.87899 4.66667 7.3267 4.66667ZM2.66003 6.66667H1.66003C1.10775 6.66667 0.660034 7.11438 0.660034 7.66667V9.66667C0.660034 10.219 1.10775 10.6667 1.66003 10.6667H2.66003C3.21232 10.6667 3.66003 10.219 3.66003 9.66667V7.66667C3.66003 7.11438 3.21232 6.66667 2.66003 6.66667Z" fill="black"/>
</svg>
