<svg width="17" height="11" viewBox="0 0 17 11" fill="none" xmlns="http://www.w3.org/2000/svg">
<path fill-rule="evenodd" clip-rule="evenodd" d="M16 0H15C14.4477 0 14 0.447715 14 1V9.66667C14 10.219 14.4477 10.6667 15 10.6667H16C16.5523 10.6667 17 10.219 17 9.66667V1C17 0.447715 16.5523 0 16 0ZM10 2H11C11.5523 2 12 2.44772 12 3V9.33333C12 9.88562 11.5523 10.3333 11 10.3333H10C9.44771 10.3333 9 9.88562 9 9.33333V3C9 2.44772 9.44771 2 10 2ZM7 5H6C5.44772 5 5 5.44772 5 6V10C5 10.5523 5.44772 11 6 11H7C7.55228 11 8 10.5523 8 10V6C8 5.44772 7.55228 5 7 5ZM2 7H1C0.447715 7 0 7.44772 0 8V10C0 10.5523 0.447715 11 1 11H2C2.55228 11 3 10.5523 3 10V8C3 7.44772 2.55228 7 2 7Z" fill="black" fill-opacity="0.9"/>
</svg>
