<svg width="95" height="24" viewBox="0 0 95 24" fill="none" xmlns="http://www.w3.org/2000/svg">
<g clip-path="url(#clip0_1460_13517)">
<path d="M33.8119 21.0625H32.822V22.0943H32.3544V19.6695H32.822V20.6691H33.8119V19.6695H34.2795V22.0943H33.8119V21.0625Z" fill="#3E3A34"/>
<path d="M40.9445 22.0943L42.0666 19.6469H42.2279L43.3435 22.0943H42.8276L42.6438 21.7009H41.641L41.4572 22.0943H40.938H40.9445ZM41.8119 21.314H42.4794L42.1472 20.5337L41.8119 21.314Z" fill="#3E3A34"/>
<path d="M51.2597 21.127L51.8821 22.0943H51.3145L50.8051 21.2592C50.7019 21.2688 50.5987 21.2721 50.4794 21.2624V22.0943H50.0118V19.6888C51.1598 19.4921 51.6886 19.8436 51.6886 20.4434C51.6886 20.7626 51.4887 21.0141 51.2597 21.127ZM50.4794 20.8561C50.9856 20.9077 51.2081 20.7175 51.2081 20.4337C51.2081 20.1757 50.9727 19.9984 50.4794 20.0758V20.8561Z" fill="#3E3A34"/>
<path d="M60.1174 21.7009V22.0943H58.5696V19.6695H60.0819V20.0629H59.034V20.6659H59.8981V21.0592H59.034V21.6977H60.1142L60.1174 21.7009Z" fill="#3E3A34"/>
<path d="M66.7922 21.5848V21.1818L67.7757 21.0302V21.4333L66.7922 21.5848Z" fill="#3E3A34"/>
<path d="M74.5471 19.6921C75.2307 19.5824 76.1755 19.5824 76.1755 20.3112C76.1755 20.582 76.0272 20.7529 75.9143 20.8077C76.1046 20.8529 76.3464 21.0496 76.3464 21.401C76.3464 21.8879 75.9756 22.2394 74.5503 22.0911V19.6921H74.5471ZM75.0179 20.6691H75.5177C75.6144 20.6368 75.7112 20.5208 75.7112 20.3789C75.7112 20.0371 75.3339 20.0177 75.0179 20.0597V20.6691ZM75.0179 21.6913C75.4919 21.7364 75.8627 21.6816 75.8627 21.3527C75.8627 21.1431 75.6886 21.0528 75.5628 21.027H75.0179V21.6913Z" fill="#3E3A34"/>
<path d="M83.1307 19.6695H83.5983V22.0943H83.1307V19.6695Z" fill="#3E3A34"/>
<path d="M92.1948 22.0943H90.3923L90.3536 22.0298L91.537 20.0661H90.4762V19.6727H92.2206L92.2561 19.7372L91.0953 21.7009H92.1948V22.0943Z" fill="#3E3A34"/>
<path d="M41.5797 4.36921C41.3992 4.08868 40.5608 2.95688 40.377 2.71181L39.329 3.23741C41.1831 6.33938 42.5148 10.4119 43.0566 13.7332L45.6039 12.6788C44.6172 9.74124 43.2533 6.96494 41.5797 4.36921ZM33.828 2.76018C33.828 9.26401 31.6934 11.9436 30.036 13.601L30.9195 14.2072C34.747 11.1375 35.7498 8.60621 36.3883 3.74688C36.4109 3.53084 36.4399 3.19549 36.4399 3.19549L33.828 2.76018Z" fill="#3E3A34"/>
<path d="M59.9659 6.15236C59.4403 7.27771 57.9151 10.5441 52.3722 11.7598V2.16364L50.0763 1.7767C50.0924 2.36034 50.1214 2.93108 50.1214 3.56308L50.0602 14.4168C51.437 14.4168 53.7426 13.6364 54.1263 13.4978C55.8514 12.869 57.4056 11.8501 58.6277 10.4796C59.9659 8.9867 60.5076 7.58081 60.8623 6.65861L59.9659 6.14913V6.15236Z" fill="#3E3A34"/>
<path d="M71.0872 13.1302H69.5782C67.4983 13.1302 67.2984 12.5788 67.2984 11.6211L67.3307 7.75494C68.5302 7.60017 71.8579 7.17131 74.9115 6.06208C74.9889 6.02983 75.2759 5.92665 75.4048 5.85248C75.3855 5.80412 74.0602 4.16607 74.0602 4.16607C72.6124 5.24628 69.791 6.20073 67.3307 6.66184L67.3468 2.09271L65.08 1.70577C65.0961 2.27328 65.0961 2.97945 65.0961 3.55019L65.0638 11.4502C65.0638 13.0722 65.5411 14.162 69.0848 14.162H70.61C71.0743 14.162 74.0441 14.1459 75.6306 14.0846V12.7142C73.5507 13.127 71.429 13.127 71.0872 13.127V13.1302ZM75.8595 0.667478L75.1856 1.22209C75.737 1.68642 76.2464 2.29908 76.6785 2.86982L77.633 2.11206C76.9107 1.38977 76.14 0.851275 75.8627 0.664253L75.8595 0.667478ZM74.4278 1.4865L73.7345 2.03789C74.2601 2.51512 74.8599 3.22774 75.3049 3.9339L76.2464 3.16647C75.6918 2.51834 75.1082 1.97663 74.4278 1.4865Z" fill="#3E3A34"/>
<path d="M92.7785 0.28376L92.0981 0.854498C92.8494 1.44136 93.3911 2.07014 93.6684 2.44095L94.5778 1.64128C93.8974 0.977029 93.0655 0.467557 92.7753 0.28376H92.7785ZM91.3597 1.11891L90.7148 1.70577C91.1598 2.07336 91.7757 2.72149 92.3786 3.49214L93.2686 2.73438C92.4528 1.87344 91.6983 1.34785 91.3597 1.11891ZM88.7285 8.8674C89.8345 7.29706 90.3762 6.0911 91.1275 4.19831C91.2501 3.90488 91.2984 3.78235 91.4532 3.49214L90.7019 2.67312C90.1473 2.71826 88.4834 2.73438 88.2674 2.73438L84.0594 2.76663C82.9824 2.78275 82.3794 2.76663 81.3798 2.72149L81.396 3.79847C81.9796 3.78235 83.5016 3.74043 84.0755 3.74043L88.6995 3.70819C88.19 5.47844 87.3097 8.29666 85.2041 10.3313C83.5209 11.9468 81.5056 12.7658 80.3029 13.0754L80.7188 14.0137C82.3053 13.5204 85.849 12.4434 88.0062 9.74446C89.8538 11.2535 90.8857 12.6594 91.6273 13.8589L93.5524 12.5046C91.9046 10.7021 89.4701 9.28658 88.7317 8.87062L88.7285 8.8674Z" fill="#3E3A34"/>
<path d="M18.7857 5.63966C18.7857 2.52479 21.3105 0 24.4221 0V11.2761C21.3105 11.2761 18.7857 8.75131 18.7857 5.63966Z" fill="#61677F"/>
<path d="M21.7201 11.2761H10.4407V0H21.7168C18.602 0 16.0772 2.52479 16.0772 5.63644C16.0772 8.74809 18.602 11.2761 21.7168 11.2761H21.7201Z" fill="#DE818C"/>
<path d="M11.6951 18.3603V23.9968H17.3315C14.2166 23.9968 11.6951 21.472 11.6951 18.3603Z" fill="#64B5C7"/>
<path d="M17.3315 12.7239C20.4464 12.7239 22.9679 15.2487 22.9679 18.3603V12.7239H17.3315Z" fill="#64BFAA"/>
<path d="M17.3315 24H22.9679V18.3636C22.9679 21.4784 20.4431 24 17.3315 24Z" fill="#64BFAA"/>
<path d="M17.3315 12.7239H11.6951V18.3603C11.6951 15.2455 14.2199 12.7239 17.3315 12.7239Z" fill="#64B5C7"/>
<path d="M11.695 12.7239C5.46852 12.7239 0.418945 17.7735 0.418945 24H11.695V12.7239Z" fill="#EDDA13"/>
<path d="M11.695 12.7239H0.418945V24C0.418945 17.7735 5.46852 12.7239 11.695 12.7239Z" fill="#64BFAA"/>
</g>
<defs>
<clipPath id="clip0_1460_13517">
<rect width="94.162" height="24" fill="white" transform="translate(0.418945)"/>
</clipPath>
</defs>
</svg>
