<svg width="20" height="20" viewBox="0 0 20 20" fill="none" xmlns="http://www.w3.org/2000/svg">
<path d="M6.45801 9.79175C6.45801 9.10139 5.89836 8.54175 5.20801 8.54175C4.51765 8.54175 3.95801 9.10139 3.95801 9.79175C3.95801 10.4821 4.51765 11.0417 5.20801 11.0417C5.89836 11.0417 6.45801 10.4821 6.45801 9.79175Z" fill="#0D0D0D"/>
<path d="M11.458 9.79175C11.458 9.10139 10.8984 8.54175 10.208 8.54175C9.51765 8.54175 8.95801 9.10139 8.95801 9.79175C8.95801 10.4821 9.51765 11.0417 10.208 11.0417C10.8984 11.0417 11.458 10.4821 11.458 9.79175Z" fill="#0D0D0D"/>
<path d="M16.041 9.79175C16.041 9.10139 15.4814 8.54175 14.791 8.54175C14.1007 8.54175 13.541 9.10139 13.541 9.79175C13.541 10.4821 14.1007 11.0417 14.791 11.0417C15.4814 11.0417 16.041 10.4821 16.041 9.79175Z" fill="#0D0D0D"/>
</svg>
