<svg width="20" height="20" viewBox="0 0 20 20" fill="none" xmlns="http://www.w3.org/2000/svg">
<path d="M6.45825 9.79175C6.45825 9.10139 5.89861 8.54175 5.20825 8.54175C4.5179 8.54175 3.95825 9.10139 3.95825 9.79175C3.95825 10.4821 4.5179 11.0417 5.20825 11.0417C5.89861 11.0417 6.45825 10.4821 6.45825 9.79175Z" fill="#0D0D0D"/>
<path d="M11.4583 9.79175C11.4583 9.10139 10.8986 8.54175 10.2083 8.54175C9.5179 8.54175 8.95825 9.10139 8.95825 9.79175C8.95825 10.4821 9.5179 11.0417 10.2083 11.0417C10.8986 11.0417 11.4583 10.4821 11.4583 9.79175Z" fill="#0D0D0D"/>
<path d="M16.0415 9.79175C16.0415 9.10139 15.4819 8.54175 14.7915 8.54175C14.1011 8.54175 13.5415 9.10139 13.5415 9.79175C13.5415 10.4821 14.1011 11.0417 14.7915 11.0417C15.4819 11.0417 16.0415 10.4821 16.0415 9.79175Z" fill="#0D0D0D"/>
</svg>
