<svg width="44" height="44" viewBox="0 0 44 44" fill="none" xmlns="http://www.w3.org/2000/svg">
<g clip-path="url(#clip0_429_6943)">
<path d="M1.83529 13.7501C2.84729 13.7501 3.66862 12.9306 3.66862 11.9167V9.16675C3.66862 8.15475 4.49179 7.33341 5.50195 7.33341H8.25195C9.26395 7.33341 10.0853 6.51391 10.0853 5.50008C10.0853 4.48625 9.26395 3.66675 8.25195 3.66675H5.50195C2.46962 3.66675 0.00195312 6.13441 0.00195312 9.16675V11.9167C0.00195312 12.9306 0.823286 13.7501 1.83529 13.7501Z" fill="black"/>
<path d="M38.5018 3.66675H35.7518C34.7398 3.66675 33.9185 4.48625 33.9185 5.50008C33.9185 6.51391 34.7398 7.33341 35.7518 7.33341H38.5018C39.512 7.33341 40.3351 8.15475 40.3351 9.16675V11.9167C40.3351 12.9306 41.1565 13.7501 42.1685 13.7501C43.1805 13.7501 44.0018 12.9306 44.0018 11.9167V9.16675C44.0018 6.13441 41.5341 3.66675 38.5018 3.66675Z" fill="black"/>
<path d="M0.00195312 34.8333C0.00195312 37.8657 2.46962 40.3333 5.50195 40.3333H8.25195C9.26395 40.3333 10.0853 39.5138 10.0853 38.5C10.0853 37.4862 9.26395 36.6667 8.25195 36.6667H5.50195C4.49179 36.6667 3.66862 35.8453 3.66862 34.8333V32.0833C3.66862 31.0695 2.84729 30.25 1.83529 30.25C0.823286 30.25 0.00195312 31.0695 0.00195312 32.0833V34.8333Z" fill="black"/>
<path d="M42.1685 30.25C41.1565 30.25 40.3351 31.0695 40.3351 32.0833V34.8333C40.3351 35.8453 39.512 36.6667 38.5018 36.6667H35.7518C34.7398 36.6667 33.9185 37.4862 33.9185 38.5C33.9185 39.5138 34.7398 40.3333 35.7518 40.3333H38.5018C41.5341 40.3333 44.0018 37.8657 44.0018 34.8333V32.0833C44.0018 31.0695 43.1805 30.25 42.1685 30.25Z" fill="black"/>
<path d="M21.9999 33.1283C29.0582 33.1283 35.0715 28.6916 36.6299 22.3299C36.6849 22.1099 36.6849 21.8899 36.6299 21.6699C35.0715 15.3082 29.0582 10.8716 21.9999 10.8716C14.9415 10.8716 8.9282 15.3082 7.36986 21.6699C7.31486 21.8899 7.31486 22.1099 7.36986 22.3299C8.9282 28.6916 14.9415 33.1283 21.9999 33.1283ZM21.9999 16.4999C25.0249 16.4999 27.4999 18.9749 27.4999 21.9999C27.4999 25.0249 25.0249 27.4999 21.9999 27.4999C18.9749 27.4999 16.4999 25.0249 16.4999 21.9999C16.4999 18.9749 18.9749 16.4999 21.9999 16.4999Z" fill="black"/>
</g>
<defs>
<clipPath id="clip0_429_6943">
<rect width="44" height="44" rx="4" fill="white"/>
</clipPath>
</defs>
</svg>
