<svg width="16" height="12" viewBox="0 0 16 12" fill="none" xmlns="http://www.w3.org/2000/svg">
<path fill-rule="evenodd" clip-rule="evenodd" d="M7.63661 2.93736C9.8525 2.93746 11.9837 3.7889 13.5896 5.31569C13.7105 5.43357 13.9038 5.43208 14.0229 5.31236L15.1789 4.14569C15.2392 4.08497 15.2729 4.00272 15.2724 3.91714C15.2719 3.83156 15.2373 3.74971 15.1763 3.68969C10.9612 -0.349853 4.31137 -0.349853 0.0962725 3.68969C0.0352139 3.74966 0.00057 3.83149 6.97078e-06 3.91707C-0.000556058 4.00265 0.0330082 4.08493 0.0932725 4.14569L1.24961 5.31236C1.36863 5.43226 1.56208 5.43375 1.68294 5.31569C3.28909 3.7888 5.4205 2.93736 7.63661 2.93736ZM7.63661 6.73303C8.8541 6.73295 10.0281 7.18549 10.9306 8.00269C11.0527 8.11868 11.245 8.11616 11.3639 7.99703L12.5186 6.83036C12.5794 6.76917 12.6132 6.68615 12.6123 6.59988C12.6114 6.51362 12.576 6.43131 12.5139 6.37136C9.76574 3.81498 5.5098 3.81498 2.76161 6.37136C2.69953 6.43131 2.66411 6.51366 2.6633 6.59995C2.66248 6.68625 2.69634 6.76925 2.75727 6.83036L3.91161 7.99703C4.03059 8.11616 4.22288 8.11868 4.34494 8.00269C5.24681 7.18603 6.41992 6.73353 7.63661 6.73303ZM9.9496 9.28685C9.95137 9.37335 9.91736 9.45676 9.85561 9.51736L7.85827 11.533C7.79972 11.5923 7.7199 11.6256 7.63661 11.6256C7.55332 11.6256 7.47349 11.5923 7.41494 11.533L5.41727 9.51736C5.35556 9.45671 5.32161 9.37328 5.32344 9.28677C5.32527 9.20027 5.36272 9.11835 5.42694 9.06036C6.70251 7.98148 8.5707 7.98148 9.84627 9.06036C9.91045 9.1184 9.94783 9.20034 9.9496 9.28685Z" fill="black"/>
</svg>
