<svg width="16" height="17" viewBox="0 0 16 17" fill="none" xmlns="http://www.w3.org/2000/svg">
<path d="M5.29341 15.5H11.7066C12.5756 15.5 13 15.0736 13 14.1407V9.24987C13 8.4103 12.6497 7.97719 11.9289 7.9039V6.22476C11.9289 3.71271 10.265 2.5 8.5 2.5C6.73503 2.5 5.07111 3.71271 5.07111 6.22476V7.93721C4.41093 8.03716 4 8.46361 4 9.24987V14.1407C4 15.0736 4.4244 15.5 5.29341 15.5ZM6.15569 6.08483C6.15569 4.41235 7.24027 3.52614 8.5 3.52614C9.75973 3.52614 10.8443 4.41235 10.8443 6.08483V7.89723L6.15569 7.9039V6.08483Z" fill="#676769"/>
</svg>
