<svg width="81" height="4" viewBox="0 0 81 4" fill="none" xmlns="http://www.w3.org/2000/svg">
<path d="M2.52399 2.5829H1.20409V3.95869H0.580688V0.725586H1.20409V2.05838H2.52399V0.725586H3.1474V3.95869H2.52399V2.5829Z" fill="#3E3A34"/>
<path d="M12.0341 3.95949L13.5303 0.696289H13.7452L15.2328 3.95949H14.5449L14.2999 3.43497H12.9628L12.7177 3.95949H12.0255H12.0341ZM13.1906 2.91905H14.0806L13.6378 1.87861L13.1906 2.91905Z" fill="#3E3A34"/>
<path d="M25.7877 2.66929L26.6175 3.95909H25.8608L25.1815 2.84557C25.044 2.85846 24.9064 2.86276 24.7473 2.84987V3.95909H24.1239V0.751788C25.6545 0.489528 26.3596 0.958156 26.3596 1.75783C26.3596 2.18347 26.093 2.51881 25.7877 2.66929ZM24.7473 2.30815C25.4223 2.37694 25.719 2.12328 25.719 1.74493C25.719 1.40099 25.4051 1.16452 24.7473 1.26771V2.30815Z" fill="#3E3A34"/>
<path d="M37.598 3.43417V3.95869H35.5343V0.725586H37.5507V1.25011H36.1534V2.05408H37.3056V2.5786H36.1534V3.42987H37.5937L37.598 3.43417Z" fill="#3E3A34"/>
<path d="M46.4977 3.27953V2.74211L47.809 2.54004V3.07746L46.4977 3.27953Z" fill="#3E3A34"/>
<path d="M56.8375 0.755834C57.749 0.609657 59.0087 0.609658 59.0087 1.58131C59.0087 1.94245 58.8109 2.17032 58.6604 2.24341C58.9141 2.3036 59.2366 2.56586 59.2366 3.03449C59.2366 3.68369 58.7421 4.15232 56.8418 3.95455V0.755834H56.8375ZM57.4652 2.05853H58.1316C58.2606 2.01554 58.3896 1.86077 58.3896 1.67159C58.3896 1.21586 57.8866 1.19007 57.4652 1.24596V2.05853ZM57.4652 3.42143C58.0972 3.48162 58.5917 3.40853 58.5917 2.97C58.5917 2.69054 58.3595 2.57016 58.1918 2.53576H57.4652V3.42143Z" fill="#3E3A34"/>
<path d="M68.2825 0.725586H68.9059V3.95869H68.2825V0.725586Z" fill="#3E3A34"/>
<path d="M80.3679 3.95927H77.9646L77.913 3.87329L79.4908 1.25499H78.0763V0.730469H80.4023L80.4496 0.816456L78.9018 3.43476H80.3679V3.95927Z" fill="#3E3A34"/>
</svg>
