<svg width="44" height="44" viewBox="0 0 44 44" fill="none" xmlns="http://www.w3.org/2000/svg">
<g clip-path="url(#clip0_1550_19431)">
<path d="M1.83529 13.7501C2.84729 13.7501 3.66862 12.9306 3.66862 11.9167V9.16675C3.66862 8.15475 4.49179 7.33341 5.50195 7.33341H8.25195C9.26395 7.33341 10.0853 6.51391 10.0853 5.50008C10.0853 4.48625 9.26395 3.66675 8.25195 3.66675H5.50195C2.46962 3.66675 0.00195312 6.13441 0.00195312 9.16675V11.9167C0.00195312 12.9306 0.823286 13.7501 1.83529 13.7501Z" fill="black"/>
<path d="M38.5023 3.66675H35.7523C34.7403 3.66675 33.9189 4.48625 33.9189 5.50008C33.9189 6.51391 34.7403 7.33341 35.7523 7.33341H38.5023C39.5124 7.33341 40.3356 8.15475 40.3356 9.16675V11.9167C40.3356 12.9306 41.1569 13.7501 42.1689 13.7501C43.1809 13.7501 44.0023 12.9306 44.0023 11.9167V9.16675C44.0023 6.13441 41.5346 3.66675 38.5023 3.66675Z" fill="black"/>
<path d="M0.00195312 34.8333C0.00195312 37.8657 2.46962 40.3333 5.50195 40.3333H8.25195C9.26395 40.3333 10.0853 39.5138 10.0853 38.5C10.0853 37.4862 9.26395 36.6667 8.25195 36.6667H5.50195C4.49179 36.6667 3.66862 35.8453 3.66862 34.8333V32.0833C3.66862 31.0695 2.84729 30.25 1.83529 30.25C0.823286 30.25 0.00195312 31.0695 0.00195312 32.0833V34.8333Z" fill="black"/>
<path d="M42.1689 30.25C41.1569 30.25 40.3356 31.0695 40.3356 32.0833V34.8333C40.3356 35.8453 39.5124 36.6667 38.5023 36.6667H35.7523C34.7403 36.6667 33.9189 37.4862 33.9189 38.5C33.9189 39.5138 34.7403 40.3333 35.7523 40.3333H38.5023C41.5346 40.3333 44.0023 37.8657 44.0023 34.8333V32.0833C44.0023 31.0695 43.1809 30.25 42.1689 30.25Z" fill="black"/>
<path d="M22.0004 33.1283C29.0587 33.1283 35.072 28.6916 36.6304 22.3299C36.6854 22.1099 36.6854 21.8899 36.6304 21.6699C35.072 15.3082 29.0587 10.8716 22.0004 10.8716C14.942 10.8716 8.92869 15.3082 7.37035 21.6699C7.31535 21.8899 7.31535 22.1099 7.37035 22.3299C8.92869 28.6916 14.942 33.1283 22.0004 33.1283ZM22.0004 16.4999C25.0254 16.4999 27.5004 18.9749 27.5004 21.9999C27.5004 25.0249 25.0254 27.4999 22.0004 27.4999C18.9754 27.4999 16.5004 25.0249 16.5004 21.9999C16.5004 18.9749 18.9754 16.4999 22.0004 16.4999Z" fill="black"/>
</g>
<defs>
<clipPath id="clip0_1550_19431">
<rect width="44" height="44" rx="4" fill="white"/>
</clipPath>
</defs>
</svg>
