<svg width="20" height="20" viewBox="0 0 20 20" fill="none" xmlns="http://www.w3.org/2000/svg">
<path d="M15.8333 1.66699H4.16665C3.70641 1.66699 3.33331 2.04009 3.33331 2.50033V17.5003C3.33331 17.9606 3.70641 18.3337 4.16665 18.3337H15.8333C16.2936 18.3337 16.6666 17.9606 16.6666 17.5003V2.50033C16.6666 2.04009 16.2936 1.66699 15.8333 1.66699Z" fill="#8D8D8D" stroke="#8D8D8D" stroke-width="1.66667" stroke-linecap="square"/>
<path d="M10.9092 7.99214L10.9091 7.99216C10.5696 8.33172 10.1012 8.54134 9.58333 8.54134C8.54781 8.54134 7.70833 7.70186 7.70833 6.66634C7.70833 5.63082 8.54781 4.79134 9.58333 4.79134C10.6189 4.79134 11.4583 5.63082 11.4583 6.66634C11.4583 7.18416 11.2487 7.65262 10.9092 7.99214Z" fill="#8D8D8D" stroke="#8D8D8D" stroke-width="0.416667"/>
<path d="M12.5 9.58301L11.0565 8.13947L12.5 9.58301ZM11.0565 8.13947C11.4335 7.76247 11.6667 7.24163 11.6667 6.66634C11.6667 5.51576 10.7339 4.58301 9.58333 4.58301C8.43275 4.58301 7.5 5.51576 7.5 6.66634C7.5 7.81692 8.43275 8.74967 9.58333 8.74967C10.1586 8.74967 10.6795 8.51651 11.0565 8.13947Z" fill="#8D8D8D" stroke="white" stroke-width="1.66667" stroke-linecap="square"/>
<path d="M7.08331 12.5H12.9166H7.08331Z" fill="white"/>
<path d="M7.08331 12.5H12.9166" stroke="white" stroke-width="1.66667" stroke-linecap="square"/>
<path d="M7.08331 15H9.99998H7.08331Z" fill="white"/>
<path d="M7.08331 15H9.99998" stroke="white" stroke-width="1.66667" stroke-linecap="square"/>
</svg>
