<svg width="126" height="32" viewBox="0 0 126 32" fill="none" xmlns="http://www.w3.org/2000/svg">
<g clip-path="url(#clip0_1968_7437)">
<path d="M44.524 28.0833H43.2041V29.4591H42.5807V26.226H43.2041V27.5587H44.524V26.226H45.1474V29.4591H44.524V28.0833Z" fill="#3E3A34"/>
<path d="M54.0344 29.4591L55.5306 26.1959H55.7455L57.2331 29.4591H56.5452L56.3002 28.9346H54.9631L54.718 29.4591H54.0258H54.0344ZM55.1909 28.4187H56.0809L55.6381 27.3782L55.1909 28.4187Z" fill="#3E3A34"/>
<path d="M67.788 28.1693L68.6178 29.4591H67.8611L67.1818 28.3456C67.0443 28.3585 66.9067 28.3628 66.7476 28.3499V29.4591H66.1242V26.2518C67.6548 25.9895 68.3599 26.4582 68.3599 27.2578C68.3599 27.6835 68.0933 28.0188 67.788 28.1693ZM66.7476 27.8081C67.4226 27.8769 67.7193 27.6233 67.7193 27.2449C67.7193 26.901 67.4054 26.6645 66.7476 26.7677V27.8081Z" fill="#3E3A34"/>
<path d="M79.5984 28.9345V29.4591H77.5347V26.226H79.5511V26.7505H78.1538V27.5544H79.306V28.079H78.1538V28.9302H79.5941L79.5984 28.9345Z" fill="#3E3A34"/>
<path d="M88.4981 28.7798V28.2424L89.8094 28.0403V28.5777L88.4981 28.7798Z" fill="#3E3A34"/>
<path d="M98.8381 26.2561C99.7495 26.1099 101.009 26.1099 101.009 27.0816C101.009 27.4427 100.811 27.6706 100.661 27.7437C100.915 27.8038 101.237 28.0661 101.237 28.5347C101.237 29.1839 100.743 29.6526 98.8424 29.4548V26.2561H98.8381ZM99.4658 27.5588H100.132C100.261 27.5158 100.39 27.361 100.39 27.1718C100.39 26.7161 99.8871 26.6903 99.4658 26.7462V27.5588ZM99.4658 28.9217C100.098 28.9819 100.592 28.9088 100.592 28.4702C100.592 28.1908 100.36 28.0704 100.192 28.036H99.4658V28.9217Z" fill="#3E3A34"/>
<path d="M110.283 26.226H110.906V29.4591H110.283V26.226Z" fill="#3E3A34"/>
<path d="M122.368 29.4592H119.965L119.914 29.3732L121.491 26.7549H120.077V26.2303H122.403L122.45 26.3163L120.902 28.9346H122.368V29.4592V29.4592Z" fill="#3E3A34"/>
<path d="M54.8811 5.82558C54.6403 5.45154 53.5225 3.94247 53.2774 3.61572L51.8802 4.31652C54.3523 8.45248 56.1279 13.8826 56.8502 18.3109L60.2467 16.905C58.9311 12.9883 57.1125 9.28656 54.8811 5.82558V5.82558ZM44.5455 3.68021C44.5455 12.352 41.6993 15.9247 39.4895 18.1346L40.6675 18.9429C45.7708 14.8499 47.1079 11.4749 47.9592 4.99581C47.9893 4.70776 48.0279 4.26062 48.0279 4.26062L44.5455 3.68021V3.68021Z" fill="#3E3A34"/>
<path d="M79.3963 8.2031C78.6955 9.70357 76.6619 14.0588 69.2713 15.6797V2.88482L66.2102 2.3689C66.2317 3.14708 66.2704 3.90806 66.2704 4.75073L66.1887 19.2223C68.0245 19.2223 71.0986 18.1819 71.6102 17.997C73.9103 17.1586 75.9826 15.8 77.6121 13.9728C79.3963 11.9822 80.1186 10.1077 80.5915 8.8781L79.3963 8.1988V8.2031Z" fill="#3E3A34"/>
<path d="M94.2248 17.5069H92.2127C89.4396 17.5069 89.1731 16.7717 89.1731 15.4948L89.2161 10.3399C90.8154 10.1335 95.2524 9.56169 99.3238 8.08272C99.427 8.03972 99.8097 7.90215 99.9816 7.80326C99.9558 7.73877 98.1888 5.55471 98.1888 5.55471C96.2584 6.99498 92.4965 8.26759 89.2161 8.8824L89.2376 2.79023L86.2151 2.27431C86.2366 3.03099 86.2366 3.97255 86.2366 4.73353L86.1936 15.2669C86.1936 17.4295 86.8299 18.8827 91.5549 18.8827H93.5885C94.2076 18.8827 98.1673 18.8612 100.283 18.7795V16.9523C97.5095 17.5026 94.6805 17.5026 94.2248 17.5026V17.5069ZM100.588 0.889919L99.6893 1.62941C100.424 2.24851 101.104 3.06539 101.68 3.82637L102.952 2.81602C101.989 1.85297 100.962 1.13498 100.592 0.88562L100.588 0.889919ZM98.6789 1.98195L97.7546 2.71714C98.4554 3.35344 99.255 4.3036 99.8483 5.24515L101.104 4.22191C100.364 3.35774 99.5861 2.63545 98.6789 1.98195V1.98195Z" fill="#3E3A34"/>
<path d="M123.147 0.378296L122.239 1.13928C123.241 1.92176 123.963 2.76013 124.333 3.25456L125.546 2.18832C124.638 1.30265 123.529 0.623358 123.142 0.378296H123.147ZM121.255 1.49183L120.395 2.27431C120.988 2.76443 121.809 3.6286 122.613 4.65614L123.8 3.6458C122.712 2.49787 121.706 1.79708 121.255 1.49183V1.49183ZM117.747 11.8231C119.221 9.72936 119.944 8.12141 120.945 5.5977C121.109 5.20646 121.173 5.04308 121.38 4.65614L120.378 3.56411C119.638 3.6243 117.42 3.6458 117.132 3.6458L111.521 3.68879C110.085 3.71029 109.281 3.68879 107.948 3.6286L107.97 5.06458C108.748 5.04308 110.777 4.98719 111.543 4.98719L117.708 4.9442C117.029 7.30453 115.855 11.0622 113.047 13.775C110.803 15.929 108.116 17.021 106.512 17.4338L107.067 18.6849C109.182 18.0271 113.907 16.5911 116.784 12.9926C119.247 15.0047 120.623 16.8792 121.612 18.4785L124.178 16.6728C121.981 14.2695 118.735 12.3821 117.751 11.8274L117.747 11.8231Z" fill="#3E3A34"/>
<path d="M24.489 7.51955C24.489 3.36638 27.8554 0 32.0043 0V15.0348C27.8554 15.0348 24.489 11.6684 24.489 7.51955V7.51955Z" fill="#61677F"/>
<path d="M28.4014 15.0348H13.3624V0H28.3972C24.244 0 20.8776 3.36638 20.8776 7.51525C20.8776 11.6641 24.244 15.0348 28.3972 15.0348H28.4014Z" fill="#DE818C"/>
<path d="M15.0348 24.4805V31.9957H22.55C18.3969 31.9957 15.0348 28.6293 15.0348 24.4805Z" fill="#64B5C7"/>
<path d="M22.55 16.9652C26.7032 16.9652 30.0653 20.3316 30.0653 24.4805V16.9652H22.55V16.9652Z" fill="#64BFAA"/>
<path d="M22.55 32H30.0653V24.4847C30.0653 28.6379 26.6989 32 22.55 32Z" fill="#64BFAA"/>
<path d="M22.55 16.9652H15.0348V24.4805C15.0348 20.3273 18.4012 16.9652 22.55 16.9652V16.9652Z" fill="#64B5C7"/>
<path d="M15.0348 16.9652C6.73277 16.9652 0 23.698 0 32H15.0348V16.9652Z" fill="#EDDA13"/>
<path d="M15.0348 16.9652H0V32C0 23.698 6.73277 16.9652 15.0348 16.9652V16.9652Z" fill="#64BFAA"/>
</g>
<defs>
<clipPath id="clip0_1968_7437">
<rect width="125.55" height="32" fill="white"/>
</clipPath>
</defs>
</svg>
