<svg width="16" height="12" viewBox="0 0 16 12" fill="none" xmlns="http://www.w3.org/2000/svg">
<path fill-rule="evenodd" clip-rule="evenodd" d="M7.66707 2.28448C9.8918 2.28457 12.0315 3.13869 13.6438 4.67028C13.7652 4.78852 13.9593 4.78703 14.0789 4.66693L15.2395 3.4966C15.3 3.43569 15.3338 3.35318 15.3333 3.26733C15.3328 3.18148 15.2981 3.09937 15.2368 3.03917C11.0049 -1.01306 4.32857 -1.01306 0.0966565 3.03917C0.0353544 3.09933 0.000572274 3.18141 6.99859e-06 3.26726C-0.000558277 3.35311 0.0331399 3.43565 0.0936446 3.4966L1.25459 4.66693C1.37409 4.78721 1.56831 4.78871 1.68965 4.67028C3.30221 3.13859 5.44212 2.28447 7.66707 2.28448ZM7.99316 6.28611C9.21551 6.28603 10.3942 6.73999 11.3003 7.55976C11.4229 7.67611 11.6159 7.67358 11.7354 7.55408L12.8946 6.38375C12.9557 6.32236 12.9896 6.23908 12.9887 6.15255C12.9878 6.06601 12.9522 5.98344 12.89 5.92331C10.1308 3.3589 5.85788 3.3589 3.09872 5.92331C3.03639 5.98344 3.00083 6.06605 3.00001 6.15262C2.9992 6.23918 3.03319 6.32245 3.09437 6.38375L4.2533 7.55408C4.37277 7.67358 4.56582 7.67611 4.68837 7.55976C5.59384 6.74053 6.77163 6.28661 7.99316 6.28611ZM9.64468 9.0389C9.64646 9.12568 9.61231 9.20934 9.55031 9.27014L7.54501 11.2921C7.48623 11.3516 7.40608 11.385 7.32246 11.385C7.23884 11.385 7.15869 11.3516 7.09991 11.2921L5.09427 9.27014C5.03232 9.2093 4.99823 9.12561 5.00007 9.03883C5.00191 8.95205 5.0395 8.86987 5.10398 8.8117C6.38464 7.72943 8.26028 7.72943 9.54094 8.8117C9.60538 8.86992 9.64291 8.95212 9.64468 9.0389Z" fill="black" fill-opacity="0.9"/>
</svg>
