<svg width="18" height="18" viewBox="0 0 18 18" fill="none" xmlns="http://www.w3.org/2000/svg">
<path fill-rule="evenodd" clip-rule="evenodd" d="M2.5 8.16667C2.5 5.03705 5.03705 2.5 8.16667 2.5C11.2963 2.5 13.8333 5.03705 13.8333 8.16667C13.8333 9.6225 13.2843 10.9501 12.3821 11.9538L11.9538 12.3821C10.9501 13.2843 9.6225 13.8333 8.16667 13.8333C5.03705 13.8333 2.5 11.2963 2.5 8.16667ZM12.8347 14.2489C11.5419 15.2426 9.92326 15.8333 8.16667 15.8333C3.93248 15.8333 0.5 12.4008 0.5 8.16667C0.5 3.93248 3.93248 0.5 8.16667 0.5C12.4008 0.5 15.8333 3.93248 15.8333 8.16667C15.8333 9.92326 15.2426 11.5419 14.2489 12.8347L17.2071 15.7929L17.9142 16.5L16.5 17.9142L15.7929 17.2071L12.8347 14.2489Z" fill="#0D0D0D"/>
</svg>
