<svg width="16" height="12" viewBox="0 0 16 12" fill="none" xmlns="http://www.w3.org/2000/svg">
<path fill-rule="evenodd" clip-rule="evenodd" d="M7.63661 2.93748C9.8525 2.93758 11.9837 3.78902 13.5896 5.31582C13.7105 5.43369 13.9038 5.4322 14.0229 5.31248L15.1789 4.14582C15.2392 4.08509 15.2729 4.00284 15.2724 3.91726C15.2719 3.83168 15.2373 3.74983 15.1763 3.68982C10.9612 -0.349731 4.31137 -0.349731 0.0962725 3.68982C0.0352139 3.74978 0.00057 3.83161 6.97078e-06 3.91719C-0.000556058 4.00277 0.0330082 4.08505 0.0932725 4.14582L1.24961 5.31248C1.36863 5.43238 1.56208 5.43387 1.68294 5.31582C3.28909 3.78892 5.4205 2.93748 7.63661 2.93748ZM7.63661 6.73315C8.8541 6.73308 10.0281 7.18561 10.9306 8.00282C11.0527 8.1188 11.245 8.11628 11.3639 7.99715L12.5186 6.83048C12.5794 6.76929 12.6132 6.68627 12.6123 6.60001C12.6114 6.51374 12.576 6.43143 12.5139 6.37148C9.76574 3.8151 5.5098 3.8151 2.76161 6.37148C2.69953 6.43143 2.66411 6.51378 2.6633 6.60008C2.66248 6.68637 2.69634 6.76938 2.75727 6.83048L3.91161 7.99715C4.03059 8.11628 4.22288 8.1188 4.34494 8.00282C5.24681 7.18615 6.41992 6.73365 7.63661 6.73315ZM9.9496 9.28697C9.95137 9.37348 9.91736 9.45688 9.85561 9.51748L7.85827 11.5332C7.79972 11.5924 7.7199 11.6257 7.63661 11.6257C7.55332 11.6257 7.47349 11.5924 7.41494 11.5332L5.41727 9.51748C5.35556 9.45683 5.32161 9.3734 5.32344 9.2869C5.32527 9.20039 5.36272 9.11847 5.42694 9.06048C6.70251 7.9816 8.5707 7.9816 9.84627 9.06048C9.91045 9.11852 9.94783 9.20046 9.9496 9.28697Z" fill="black"/>
</svg>
