<svg width="121" height="20" viewBox="0 0 121 20" fill="none" xmlns="http://www.w3.org/2000/svg">
<path d="M1.8139 4.19317L0.0471143 3.86337V2.21437H8.08009V3.86337L5.84217 4.19317V17.8799L10.2709 17.6443L11.8021 12.98L14.0165 13.2627L13.3333 19.7173H0V18.1625L1.8139 17.927V4.19317Z" fill="#0F0F0F"/>
<path d="M25.8804 19.9529C25.3151 19.9529 24.9068 19.8351 24.6555 19.5995C24.4042 19.3483 24.2786 18.987 24.2786 18.5159V17.9976C23.9016 18.5159 23.3363 18.9792 22.5824 19.3875C21.8286 19.7801 21.0669 19.9764 20.2974 19.9764C18.7583 19.9764 17.659 19.5995 16.9994 18.8457C16.3555 18.0762 16.0336 16.7962 16.0336 15.0059V8.45701L14.9264 8.15077V6.64311L19.3551 6.33687H19.3787L19.8969 6.66667V15.1001C19.8969 16.1209 20.0226 16.8355 20.2738 17.2438C20.5251 17.6364 20.9727 17.8327 21.6166 17.8327C22.4961 17.8327 23.2342 17.5344 23.831 16.9376V8.45701L22.3704 8.10365V6.64311L27.0347 6.33687H27.1054L27.6708 6.66667V18.0919H28.9193V19.5995C28.3854 19.7095 27.8907 19.7958 27.4352 19.8587C26.9955 19.9215 26.4772 19.9529 25.8804 19.9529Z" fill="#0F0F0F"/>
<path d="M31.9713 8.59835H30.1338V7.13781L31.9713 6.66667V5.67727C31.9713 4.62505 32.2539 3.66706 32.8193 2.8033C33.3847 1.93954 34.1385 1.25638 35.0808 0.753827C36.0388 0.251276 37.0674 0 38.1668 0C38.7479 0 39.274 0.0785237 39.7451 0.235571V3.65135C39.5723 3.4629 39.2347 3.28229 38.7321 3.10954C38.2296 2.92108 37.7349 2.82686 37.2481 2.82686C36.7298 2.82686 36.3607 2.96035 36.1409 3.22733C35.921 3.49431 35.8111 3.93404 35.8111 4.54652V6.64311H38.6379V8.59835H35.8111V17.9505L38.1903 18.1625V19.7173H30.1574V18.1625L31.9713 17.9505V8.59835Z" fill="#0F0F0F"/>
<path d="M53.6766 19.9764C50.9596 19.9764 48.8945 19.1912 47.481 17.6207C46.0676 16.0345 45.3609 13.8673 45.3609 11.119C45.3609 9.2658 45.7378 7.65607 46.4916 6.28975C47.2455 4.90773 48.282 3.85552 49.6012 3.1331C50.9204 2.39497 52.4123 2.02591 54.077 2.02591C54.7366 2.02591 55.3727 2.06517 55.9852 2.1437C56.5976 2.20652 57.3358 2.30075 58.1995 2.42638C58.8748 2.53632 59.3381 2.59914 59.5894 2.61484L59.3067 7.86808H56.7861L55.9852 4.26384C55.6397 3.88693 54.9172 3.69847 53.8179 3.69847C52.6086 3.69847 51.6507 4.3031 50.9439 5.51237C50.2529 6.70593 49.9074 8.46486 49.9074 10.7892C49.9074 13.0506 50.2451 14.8645 50.9204 16.2309C51.6114 17.5972 52.6086 18.2803 53.9121 18.2803C54.556 18.2803 55.0429 18.2175 55.3727 18.0919C55.7182 17.9662 56.0087 17.7856 56.2443 17.5501L57.3044 15.0294L59.613 15.2415L59.1889 19.0813C58.7335 19.1127 58.176 19.2305 57.5164 19.4346C56.8882 19.6074 56.2914 19.7409 55.726 19.8351C55.1764 19.9293 54.4932 19.9764 53.6766 19.9764Z" fill="#0F0F0F"/>
<path d="M61.0054 15.9482C61.0054 14.5662 61.7043 13.5061 63.102 12.768C64.5154 12.0298 66.3686 11.6529 68.6615 11.6372V11.1661C68.6615 10.6007 68.5987 10.1531 68.473 9.82332C68.3474 9.49352 68.1197 9.2501 67.7899 9.09305C67.4601 8.9203 66.9732 8.83392 66.3293 8.83392C65.5598 8.83392 64.8688 8.92815 64.2563 9.11661C63.6595 9.28936 63.0313 9.52493 62.3717 9.82332L61.5708 8.12721C61.8221 7.92305 62.2304 7.67962 62.7957 7.39694C63.3611 7.09855 64.0364 6.84727 64.8217 6.64311C65.6226 6.42324 66.455 6.31331 67.3187 6.31331C68.5751 6.31331 69.5566 6.47821 70.2634 6.80801C70.9858 7.13781 71.4962 7.64821 71.7946 8.33922C72.1087 9.03023 72.2657 9.97252 72.2657 11.1661V18.1625H73.4907V19.6466C73.1295 19.7252 72.6269 19.8037 71.983 19.8822C71.3391 19.9607 70.7895 20 70.334 20C69.7373 20 69.3368 19.9136 69.1326 19.7409C68.9442 19.5681 68.8499 19.2226 68.8499 18.7044V18.1625C68.4573 18.6337 67.9312 19.0577 67.2716 19.4346C66.612 19.7958 65.8503 19.9764 64.9866 19.9764C64.2484 19.9764 63.5731 19.8194 62.9606 19.5053C62.3639 19.1755 61.8849 18.7122 61.5237 18.1154C61.1782 17.5029 61.0054 16.7805 61.0054 15.9482ZM66.824 17.8092C67.1067 17.8092 67.4208 17.7307 67.7663 17.5736C68.1118 17.4009 68.4102 17.1967 68.6615 16.9611V13.2155C67.4365 13.2155 66.5256 13.4354 65.9288 13.8751C65.3478 14.3149 65.0572 14.8803 65.0572 15.5713C65.0572 16.278 65.2143 16.8276 65.5284 17.2203C65.8425 17.6129 66.2744 17.8092 66.824 17.8092Z" fill="#0F0F0F"/>
<path d="M74.7937 18.1625L76.2307 17.9505V9.09305L74.8408 8.66902V6.83157L78.7513 6.31331H78.822L79.4816 6.80801V7.37338L79.4109 9.32862H79.4816C79.5915 8.96741 79.8428 8.55124 80.2354 8.08009C80.628 7.59325 81.1227 7.17707 81.7195 6.83157C82.332 6.47036 82.9916 6.28975 83.6983 6.28975C84.1066 6.28975 84.4207 6.34472 84.6406 6.45465V10.5536C84.3893 10.3651 84.1145 10.2159 83.8161 10.106C83.5334 9.99607 83.1643 9.94111 82.7089 9.94111C82.1435 9.94111 81.6331 10.0196 81.1777 10.1767C80.7222 10.318 80.361 10.4829 80.094 10.6714V17.9505L82.6853 18.1861V19.7173H74.7937V18.1625Z" fill="#0F0F0F"/>
<path d="M86.1121 18.1625L87.5491 17.9505V9.09305L86.1593 8.66902V6.83157L90.0697 6.31331H90.1404L90.8 6.80801V7.37338L90.7293 9.32862H90.8C90.91 8.96741 91.1612 8.55124 91.5538 8.08009C91.9465 7.59325 92.4412 7.17707 93.0379 6.83157C93.6504 6.47036 94.31 6.28975 95.0167 6.28975C95.4251 6.28975 95.7392 6.34472 95.959 6.45465V10.5536C95.7078 10.3651 95.4329 10.2159 95.1345 10.106C94.8519 9.99607 94.4828 9.94111 94.0273 9.94111C93.462 9.94111 92.9516 10.0196 92.4961 10.1767C92.0407 10.318 91.6795 10.4829 91.4125 10.6714V17.9505L94.0038 18.1861V19.7173H86.1121V18.1625Z" fill="#0F0F0F"/>
<path d="M103.485 19.9764C101.333 19.9764 99.7392 19.3718 98.7027 18.1625C97.6662 16.9376 97.1479 15.2729 97.1479 13.1684C97.1479 11.7393 97.4149 10.5065 97.9489 9.46996C98.4828 8.43345 99.2288 7.64821 100.187 7.11425C101.16 6.56458 102.299 6.28975 103.603 6.28975C105.252 6.28975 106.508 6.70593 107.372 7.53828C108.251 8.37063 108.707 9.54849 108.738 11.0718C108.738 12.077 108.667 12.8857 108.526 13.4982H101.153C101.231 14.8331 101.553 15.8539 102.118 16.5607C102.7 17.2517 103.508 17.5972 104.545 17.5972C105.126 17.5972 105.731 17.5029 106.359 17.3145C107.003 17.1103 107.521 16.8826 107.914 16.6313L108.573 18.0683C108.165 18.5238 107.466 18.9556 106.477 19.364C105.503 19.7723 104.506 19.9764 103.485 19.9764ZM104.992 11.9435L105.016 10.9541C105.016 9.96466 104.883 9.21084 104.616 8.69258C104.349 8.17432 103.893 7.91519 103.249 7.91519C102.59 7.91519 102.079 8.20573 101.718 8.78681C101.357 9.35218 101.16 10.4044 101.129 11.9435H104.992Z" fill="#0F0F0F"/>
<path d="M110.474 18.1625L111.911 17.9505V9.09305L110.522 8.66902V6.83157L114.432 6.31331H114.503L115.162 6.80801V7.37338L115.092 9.32862H115.162C115.272 8.96741 115.524 8.55124 115.916 8.08009C116.309 7.59325 116.803 7.17707 117.4 6.83157C118.013 6.47036 118.672 6.28975 119.379 6.28975C119.787 6.28975 120.101 6.34472 120.321 6.45465V10.5536C120.07 10.3651 119.795 10.2159 119.497 10.106C119.214 9.99607 118.845 9.94111 118.39 9.94111C117.824 9.94111 117.314 10.0196 116.858 10.1767C116.403 10.318 116.042 10.4829 115.775 10.6714V17.9505L118.366 18.1861V19.7173H110.474V18.1625Z" fill="#0F0F0F"/>
</svg>
