<svg width="20" height="20" viewBox="0 0 20 20" fill="none" xmlns="http://www.w3.org/2000/svg">
<path d="M6.4585 9.79175C6.4585 9.10139 5.89885 8.54175 5.2085 8.54175C4.51814 8.54175 3.9585 9.10139 3.9585 9.79175C3.9585 10.4821 4.51814 11.0417 5.2085 11.0417C5.89885 11.0417 6.4585 10.4821 6.4585 9.79175Z" fill="#0D0D0D"/>
<path d="M11.4585 9.79175C11.4585 9.10139 10.8989 8.54175 10.2085 8.54175C9.51814 8.54175 8.9585 9.10139 8.9585 9.79175C8.9585 10.4821 9.51814 11.0417 10.2085 11.0417C10.8989 11.0417 11.4585 10.4821 11.4585 9.79175Z" fill="#0D0D0D"/>
<path d="M16.042 9.79175C16.042 9.10139 15.4823 8.54175 14.792 8.54175C14.1016 8.54175 13.542 9.10139 13.542 9.79175C13.542 10.4821 14.1016 11.0417 14.792 11.0417C15.4823 11.0417 16.042 10.4821 16.042 9.79175Z" fill="#0D0D0D"/>
</svg>
