<svg width="87" height="20" viewBox="0 0 87 20" fill="none" xmlns="http://www.w3.org/2000/svg">
<path d="M15.8811 6.32558C15.6404 5.95154 14.5226 4.44247 14.2775 4.11572L12.8802 4.81652C15.3523 8.95248 17.128 14.3826 17.8502 18.8109L21.2467 17.405C19.9311 13.4883 18.1125 9.78655 15.8811 6.32558ZM5.54553 4.18021C5.54553 12.852 2.69936 16.4247 0.489502 18.6346L1.66752 19.4429C6.77084 15.3499 8.10794 11.9749 8.95921 5.49581C8.9893 5.20776 9.028 4.76062 9.028 4.76062L5.54553 4.18021Z" fill="#3E3A34"/>
<path d="M40.3961 8.7031C39.6953 10.2036 37.6617 14.5588 30.2711 16.1797V3.38482L27.21 2.8689C27.2315 3.64708 27.2702 4.40806 27.2702 5.25073L27.1885 19.7223C29.0243 19.7223 32.0983 18.6819 32.6099 18.497C34.9101 17.6586 36.9824 16.3 38.6118 14.4728C40.3961 12.4822 41.1183 10.6077 41.5913 9.3781L40.3961 8.6988V8.7031Z" fill="#3E3A34"/>
<path d="M55.2244 18.007H53.2123C50.4392 18.007 50.1727 17.2718 50.1727 15.9949L50.2157 10.84C51.815 10.6336 56.252 10.0618 60.3234 8.58284C60.4266 8.53985 60.8093 8.40227 60.9812 8.30338C60.9554 8.23889 59.1884 6.05483 59.1884 6.05483C57.258 7.49511 53.4961 8.76771 50.2157 9.38252L50.2372 3.29035L47.2147 2.77443C47.2362 3.53111 47.2362 4.47267 47.2362 5.23365L47.1932 15.767C47.1932 17.9296 47.8295 19.3828 52.5545 19.3828H54.5881C55.2072 19.3828 59.1669 19.3613 61.2822 19.2796V17.4524C58.5091 18.0027 55.6801 18.0027 55.2244 18.0027V18.007ZM61.5874 1.39004L60.6889 2.12953C61.4241 2.74863 62.1034 3.56551 62.6795 4.32649L63.9521 3.31615C62.989 2.35309 61.9615 1.6351 61.5917 1.38574L61.5874 1.39004ZM59.6785 2.48207L58.7542 3.21726C59.455 3.85356 60.2546 4.80372 60.848 5.74527L62.1034 4.72203C61.3639 3.85786 60.5857 3.13557 59.6785 2.48207Z" fill="#3E3A34"/>
<path d="M84.1461 0.878418L83.239 1.6394C84.2407 2.42188 84.963 3.26025 85.3327 3.75468L86.5452 2.68844C85.638 1.80278 84.5288 1.12348 84.1418 0.878418H84.1461ZM82.2544 1.99195L81.3945 2.77443C81.9878 3.26455 82.809 4.12872 83.613 5.15626L84.7996 4.14592C83.7119 2.99799 82.7058 2.2972 82.2544 1.99195ZM78.7461 12.3233C80.2208 10.2295 80.9431 8.62153 81.9449 6.09782C82.1082 5.70658 82.1727 5.5432 82.3791 5.15626L81.3773 4.06423C80.6378 4.12442 78.4194 4.14592 78.1313 4.14592L72.5207 4.18891C71.0847 4.21041 70.2807 4.18891 68.9479 4.12872L68.9694 5.5647C69.7476 5.5432 71.7769 5.48731 72.5422 5.48731L78.7074 5.44432C78.0282 7.80466 76.8544 11.5623 74.047 14.2752C71.8027 16.4291 69.1156 17.5212 67.512 17.9339L68.0666 19.185C70.1819 18.5272 74.9068 17.0912 77.7831 13.4927C80.2466 15.5048 81.6224 17.3793 82.6112 18.9786L85.178 17.1729C82.981 14.7696 79.735 12.8822 78.7504 12.3276L78.7461 12.3233Z" fill="#3E3A34"/>
</svg>
