<svg width="81" height="4" viewBox="0 0 81 4" fill="none" xmlns="http://www.w3.org/2000/svg">
<path d="M2.52399 2.58339H1.20409V3.95918H0.580688V0.726074H1.20409V2.05887H2.52399V0.726074H3.1474V3.95918H2.52399V2.58339Z" fill="#3E3A34"/>
<path d="M12.0341 3.959L13.5303 0.695801H13.7452L15.2328 3.959H14.5449L14.2999 3.43448H12.9628L12.7177 3.959H12.0255H12.0341ZM13.1906 2.91856H14.0806L13.6378 1.87812L13.1906 2.91856Z" fill="#3E3A34"/>
<path d="M25.7877 2.66929L26.6175 3.95909H25.8608L25.1815 2.84557C25.044 2.85846 24.9064 2.86276 24.7473 2.84987V3.95909H24.1239V0.751788C25.6545 0.489528 26.3596 0.958156 26.3596 1.75783C26.3596 2.18347 26.093 2.51881 25.7877 2.66929ZM24.7473 2.30815C25.4223 2.37694 25.719 2.12328 25.719 1.74493C25.719 1.40099 25.4051 1.16452 24.7473 1.26771V2.30815Z" fill="#3E3A34"/>
<path d="M37.598 3.43466V3.95918H35.5343V0.726074H37.5507V1.25059H36.1534V2.05457H37.3056V2.57909H36.1534V3.43036H37.5937L37.598 3.43466Z" fill="#3E3A34"/>
<path d="M46.4977 3.27977V2.74235L47.809 2.54028V3.0777L46.4977 3.27977Z" fill="#3E3A34"/>
<path d="M56.8375 0.756079C57.749 0.609901 59.0087 0.609902 59.0087 1.58155C59.0087 1.9427 58.8109 2.17056 58.6604 2.24365C58.9141 2.30384 59.2366 2.5661 59.2366 3.03473C59.2366 3.68393 58.7421 4.15256 56.8418 3.95479V0.756079H56.8375ZM57.4652 2.05878H58.1316C58.2606 2.01579 58.3896 1.86101 58.3896 1.67184C58.3896 1.21611 57.8866 1.19031 57.4652 1.2462V2.05878ZM57.4652 3.42167C58.0972 3.48186 58.5917 3.40877 58.5917 2.97024C58.5917 2.69078 58.3595 2.5704 58.1918 2.53601H57.4652V3.42167Z" fill="#3E3A34"/>
<path d="M68.2825 0.726074H68.9059V3.95918H68.2825V0.726074Z" fill="#3E3A34"/>
<path d="M80.3679 3.95903H77.9646L77.913 3.87304L79.4908 1.25474H78.0763V0.730225H80.4023L80.4496 0.816212L78.9018 3.43451H80.3679V3.95903V3.95903Z" fill="#3E3A34"/>
</svg>
