<svg width="95" height="24" viewBox="0 0 95 24" fill="none" xmlns="http://www.w3.org/2000/svg">
<g clip-path="url(#clip0_1679_20881)">
<path d="M33.8119 21.0624H32.822V22.0943H32.3544V19.6694H32.822V20.669H33.8119V19.6694H34.2795V22.0943H33.8119V21.0624Z" fill="#3E3A34"/>
<path d="M40.9445 22.0944L42.0666 19.647H42.2279L43.3435 22.0944H42.8276L42.6438 21.701H41.641L41.4572 22.0944H40.938H40.9445ZM41.8119 21.314H42.4794L42.1472 20.5337L41.8119 21.314Z" fill="#3E3A34"/>
<path d="M51.2597 21.127L51.8821 22.0943H51.3145L50.8051 21.2592C50.7019 21.2688 50.5987 21.2721 50.4794 21.2624V22.0943H50.0118V19.6888C51.1598 19.4921 51.6886 19.8436 51.6886 20.4434C51.6886 20.7626 51.4887 21.0141 51.2597 21.127ZM50.4794 20.8561C50.9856 20.9077 51.2081 20.7175 51.2081 20.4337C51.2081 20.1757 50.9727 19.9984 50.4794 20.0758V20.8561Z" fill="#3E3A34"/>
<path d="M60.1174 21.7009V22.0943H58.5696V19.6694H60.0819V20.0628H59.034V20.6658H59.8981V21.0592H59.034V21.6976H60.1142L60.1174 21.7009Z" fill="#3E3A34"/>
<path d="M66.7922 21.5849V21.1818L67.7757 21.0303V21.4333L66.7922 21.5849Z" fill="#3E3A34"/>
<path d="M74.5471 19.6921C75.2307 19.5825 76.1755 19.5825 76.1755 20.3112C76.1755 20.5821 76.0272 20.753 75.9143 20.8078C76.1046 20.8529 76.3464 21.0496 76.3464 21.4011C76.3464 21.888 75.9756 22.2395 74.5503 22.0912V19.6921H74.5471ZM75.0179 20.6691H75.5177C75.6144 20.6369 75.7112 20.5208 75.7112 20.3789C75.7112 20.0371 75.3339 20.0178 75.0179 20.0597V20.6691ZM75.0179 21.6913C75.4919 21.7365 75.8627 21.6816 75.8627 21.3527C75.8627 21.1431 75.6886 21.0529 75.5628 21.0271H75.0179V21.6913Z" fill="#3E3A34"/>
<path d="M83.1307 19.6694H83.5983V22.0943H83.1307V19.6694Z" fill="#3E3A34"/>
<path d="M92.1948 22.0943H90.3923L90.3536 22.0298L91.537 20.0661H90.4762V19.6727H92.2206L92.2561 19.7372L91.0953 21.7009H92.1948V22.0943Z" fill="#3E3A34"/>
<path d="M41.5797 4.36931C41.3992 4.08878 40.5608 2.95698 40.377 2.71191L39.329 3.23751C41.1831 6.33948 42.5148 10.412 43.0566 13.7333L45.6039 12.6789C44.6172 9.74134 43.2533 6.96504 41.5797 4.36931ZM33.828 2.76028C33.828 9.26411 31.6934 11.9437 30.036 13.6011L30.9195 14.2073C34.747 11.1375 35.7498 8.60631 36.3883 3.74698C36.4109 3.53094 36.4399 3.19559 36.4399 3.19559L33.828 2.76028Z" fill="#3E3A34"/>
<path d="M59.9659 6.15239C59.4403 7.27774 57.9151 10.5442 52.3722 11.7598V2.16367L50.0763 1.77673C50.0924 2.36037 50.1214 2.93111 50.1214 3.56311L50.0602 14.4168C51.437 14.4168 53.7426 13.6365 54.1263 13.4978C55.8514 12.869 57.4056 11.8501 58.6277 10.4797C59.9659 8.98673 60.5076 7.58084 60.8623 6.65864L59.9659 6.14916V6.15239Z" fill="#3E3A34"/>
<path d="M71.0872 13.1302H69.5782C67.4983 13.1302 67.2984 12.5789 67.2984 11.6212L67.3307 7.755C68.5302 7.60022 71.8579 7.17136 74.9115 6.06213C74.9889 6.02989 75.2759 5.9267 75.4048 5.85254C75.3855 5.80417 74.0602 4.16612 74.0602 4.16612C72.6124 5.24633 69.791 6.20078 67.3307 6.66189L67.3468 2.09276L65.08 1.70582C65.0961 2.27334 65.0961 2.9795 65.0961 3.55024L65.0638 11.4503C65.0638 13.0722 65.5411 14.1621 69.0848 14.1621H70.61C71.0743 14.1621 74.0441 14.146 75.6306 14.0847V12.7143C73.5507 13.127 71.429 13.127 71.0872 13.127V13.1302ZM75.8595 0.667531L75.1856 1.22215C75.737 1.68648 76.2464 2.29913 76.6785 2.86987L77.633 2.11211C76.9107 1.38982 76.14 0.851328 75.8627 0.664307L75.8595 0.667531ZM74.4278 1.48656L73.7345 2.03795C74.2601 2.51517 74.8599 3.22779 75.3049 3.93396L76.2464 3.16652C75.6918 2.5184 75.1082 1.97668 74.4278 1.48656Z" fill="#3E3A34"/>
<path d="M92.7785 0.283813L92.0981 0.854551C92.8494 1.44141 93.3911 2.07019 93.6684 2.44101L94.5778 1.64133C93.8974 0.977082 93.0655 0.46761 92.7753 0.283813H92.7785ZM91.3597 1.11896L90.7148 1.70582C91.1598 2.07341 91.7757 2.72154 92.3786 3.4922L93.2686 2.73444C92.4528 1.87349 91.6983 1.3479 91.3597 1.11896ZM88.7285 8.86745C89.8345 7.29711 90.3762 6.09115 91.1275 4.19836C91.2501 3.90493 91.2984 3.7824 91.4532 3.4922L90.7019 2.67317C90.1473 2.71832 88.4834 2.73444 88.2674 2.73444L84.0594 2.76668C82.9824 2.78281 82.3794 2.76668 81.3798 2.72154L81.396 3.79853C81.9796 3.7824 83.5016 3.74048 84.0755 3.74048L88.6995 3.70824C88.19 5.47849 87.3097 8.29671 85.2041 10.3314C83.5209 11.9469 81.5056 12.7659 80.3029 13.0754L80.7188 14.0138C82.3053 13.5204 85.849 12.4434 88.0062 9.74451C89.8538 11.2536 90.8857 12.6595 91.6273 13.859L93.5524 12.5047C91.9046 10.7022 89.4701 9.28663 88.7317 8.87067L88.7285 8.86745Z" fill="#3E3A34"/>
<path d="M18.7857 5.63966C18.7857 2.52479 21.3105 0 24.4221 0V11.2761C21.3105 11.2761 18.7857 8.75131 18.7857 5.63966Z" fill="#61677F"/>
<path d="M21.7201 11.2761H10.4407V0H21.7168C18.602 0 16.0772 2.52479 16.0772 5.63644C16.0772 8.74809 18.602 11.2761 21.7168 11.2761H21.7201Z" fill="#DE818C"/>
<path d="M11.6951 18.3604V23.9968H17.3315C14.2166 23.9968 11.6951 21.472 11.6951 18.3604Z" fill="#64B5C7"/>
<path d="M17.3315 12.7239C20.4464 12.7239 22.9679 15.2487 22.9679 18.3603V12.7239H17.3315Z" fill="#64BFAA"/>
<path d="M17.3315 24H22.9679V18.3635C22.9679 21.4784 20.4431 24 17.3315 24Z" fill="#64BFAA"/>
<path d="M17.3315 12.7239H11.6951V18.3603C11.6951 15.2454 14.2199 12.7239 17.3315 12.7239Z" fill="#64B5C7"/>
<path d="M11.695 12.7239C5.46852 12.7239 0.418945 17.7735 0.418945 24H11.695V12.7239Z" fill="#EDDA13"/>
<path d="M11.695 12.7239H0.418945V24C0.418945 17.7735 5.46852 12.7239 11.695 12.7239Z" fill="#64BFAA"/>
</g>
<defs>
<clipPath id="clip0_1679_20881">
<rect width="94.162" height="24" fill="white" transform="translate(0.418945)"/>
</clipPath>
</defs>
</svg>
